# xmcd
#
# Track frame offsets: 
#        150
#        13915
#        34630
#        47370
#        76357
#        87177
#        101237
#        117150
#        131147
#        144935
#        157227
#
# Disc length: 2311 seconds
#
# Revision: 1
# Processed by: cddbd v1.5.2PL0 Copyright (c) Steve Scherf et al.
# Submitted via: ExactAudioCopy v1.0b3
#
DISCID=8c09050b
DTITLE=Jazz Sampler - Vom Rag zum Beat 
DYEAR=1900
DGENRE=Jazz
TTITLE0=The Opener (Ragtime)
TTITLE1=State Street Blues (Fast Blues)
TTITLE2=Six o'clock am (Fast Dixie)
TTITLE3=Chikago River Blues (Slow Blues)
TTITLE4=Sixty Six (Swing Fox)
TTITLE5=Wild Affair (Fast Swing)
TTITLE6=Dreams for Kate (Slow Fox)
TTITLE7=Downtown Manhattan (Medium Swing)
TTITLE8=Swinging Florida (Swing Fox)
TTITLE9=Stomin' at 42nd Street (Fast Swing)
TTITLE10=Sunset Serenade (Slow Ballade)
EXTD=
EXTT0=
EXTT1=
EXTT2=
EXTT3=
EXTT4=
EXTT5=
EXTT6=
EXTT7=
EXTT8=
EXTT9=
EXTT10=
PLAYORDER=
